<svg version="1.1" id="Layer_1" xmlns="http://www.w3.org/2000/svg" xmlns:xlink="http://www.w3.org/1999/xlink" viewBox="0 392.5 1918.556 296" enable-background="new 0 392.5 1918.556 296" xml:space="preserve">
<g>
	<g opacity="0.5">
		<ellipse fill="#FFFFFF" cx="137.303" cy="574.93" rx="37.859" ry="24.068"/>
		
			<ellipse transform="matrix(-0.0599 -0.9982 0.9982 -0.0599 -460.0536 796.3067)" fill="#FFFFFF" cx="144.952" cy="614.792" rx="43.875" ry="73.33"/>
		<ellipse fill="#FFFFFF" cx="173.156" cy="655.659" rx="37.859" ry="24.068"/>
		<ellipse fill="#FFFFFF" cx="103.46" cy="655.659" rx="37.858" ry="24.068"/>
		<ellipse fill="#FFFFFF" cx="75.882" cy="597.996" rx="37.859" ry="24.068"/>
		<ellipse fill="#FFFFFF" cx="232.825" cy="635.602" rx="36.102" ry="33.595"/>
		<ellipse fill="#FFFFFF" cx="42.789" cy="635.602" rx="36.102" ry="33.595"/>
	</g>
	<g opacity="0.4">
		<ellipse fill="#FFFFFF" cx="364.604" cy="483.011" rx="25.781" ry="16.386"/>
		
			<ellipse transform="matrix(-0.0599 -0.9982 0.9982 -0.0599 -117.2609 909.8498)" fill="#FFFFFF" cx="369.814" cy="510.143" rx="29.876" ry="49.937"/>
		<ellipse fill="#FFFFFF" cx="389.013" cy="537.986" rx="25.777" ry="16.386"/>
		<ellipse fill="#FFFFFF" cx="341.56" cy="537.986" rx="25.781" ry="16.386"/>
		<ellipse fill="#FFFFFF" cx="322.778" cy="498.723" rx="25.781" ry="16.386"/>
		<ellipse fill="#FFFFFF" cx="429.644" cy="524.324" rx="24.582" ry="22.876"/>
		<ellipse fill="#FFFFFF" cx="300.247" cy="524.324" rx="24.581" ry="22.876"/>
	</g>
	<g opacity="0.7">
		<ellipse fill="#FFFFFF" cx="650.511" cy="475.614" rx="18.231" ry="11.589"/>
		
			<ellipse transform="matrix(-0.0598 -0.9982 0.9982 -0.0598 199.3567 1177.4514)" fill="#FFFFFF" cx="654.184" cy="494.841" rx="21.127" ry="35.315"/>
		<ellipse fill="#FFFFFF" cx="667.771" cy="514.492" rx="18.228" ry="11.589"/>
		<ellipse fill="#FFFFFF" cx="634.213" cy="514.492" rx="18.231" ry="11.589"/>
		<ellipse fill="#FFFFFF" cx="620.932" cy="486.726" rx="18.231" ry="11.593"/>
		<ellipse fill="#FFFFFF" cx="696.505" cy="504.829" rx="17.385" ry="16.178"/>
		<ellipse fill="#FFFFFF" cx="604.998" cy="504.829" rx="17.386" ry="16.178"/>
	</g>
	<g opacity="0.2">
		<ellipse fill="#FFFFFF" cx="1122.438" cy="414.365" rx="23.635" ry="15.022"/>
		
			<ellipse transform="matrix(-0.0598 -0.9982 0.9982 -0.0598 756.0807 1590.7589)" fill="#FFFFFF" cx="1127.201" cy="439.307" rx="27.389" ry="45.785"/>
		<ellipse fill="#FFFFFF" cx="1144.817" cy="464.764" rx="23.635" ry="15.022"/>
		<ellipse fill="#FFFFFF" cx="1101.307" cy="464.764" rx="23.635" ry="15.022"/>
		<ellipse fill="#FFFFFF" cx="1084.09" cy="428.771" rx="23.635" ry="15.026"/>
		<ellipse fill="#FFFFFF" cx="1182.07" cy="452.241" rx="22.54" ry="20.975"/>
		<ellipse fill="#FFFFFF" cx="1063.428" cy="452.241" rx="22.539" ry="20.975"/>
	</g>
	<g opacity="0.4">
		<path fill="#FFFFFF" d="M1920,469.605c-5.56,2.547-9.218,6.654-9.218,11.355c0,4.689,3.662,8.806,9.218,11.36V469.605z"/>
		<path fill="#FFFFFF" d="M1920,433.339c-1.051-0.096-2.114-0.164-3.209-0.164c-12.227,0-22.131,6.306-22.131,14.079
			c0,7.771,9.904,14.072,22.131,14.072c1.091,0,2.158,24,3.209,23.903V433.339z"/>
		<ellipse fill="#FFFFFF" cx="1897.448" cy="469.232" rx="21.107" ry="19.64"/>
	</g>
	<g opacity="0.5">
		<path fill="#FFFFFF" d="M1454.395,504.15c0,21.678-27.618,39.211-61.694,39.211c-34.071,0-61.702-17.533-61.702-39.211
			c0-21.645,27.631-39.214,61.702-39.214C1426.776,464.937,1454.395,482.51,1454.395,504.15z"/>
		<path fill="#FFFFFF" d="M1524.456,561.966c2.358,39.432-49.139,74.587-115.021,78.521
			c-65.882,3.943-121.206-24.786-123.572-64.213c-2.358-39.432,49.122-74.587,115.021-78.521
			C1466.758,493.79,1522.086,522.535,1524.456,561.966z"/>
		<path fill="#FFFFFF" d="M1512.804,635.706c0,21.645-27.61,39.219-61.683,39.219c-34.068,0-61.693-17.574-61.693-39.219
			c0-21.673,27.625-39.207,61.693-39.207C1485.193,596.499,1512.804,614.033,1512.804,635.706z"/>
		<path fill="#FFFFFF" d="M1399.239,635.706c0,21.645-27.622,39.219-61.694,39.219c-34.08,0-61.698-17.574-61.698-39.219
			c0-21.673,27.618-39.207,61.698-39.207C1371.617,596.499,1399.239,614.033,1399.239,635.706z"/>
		<path fill="#FFFFFF" d="M1354.301,541.753c0,21.646-27.631,39.223-61.698,39.223c-34.08,0-61.694-17.577-61.694-39.223
			c0-21.665,27.614-39.247,61.694-39.247C1326.67,502.502,1354.301,520.084,1354.301,541.753z"/>
		<path fill="#FFFFFF" d="M1607.197,603.021c0,30.258-26.334,54.759-58.834,54.759c-32.491,0-58.842-24.501-58.842-54.759
			c0-30.225,26.351-54.746,58.842-54.746C1580.859,548.275,1607.197,572.797,1607.197,603.021z"/>
		<path fill="#FFFFFF" d="M1297.508,603.021c0,30.258-26.334,54.759-58.842,54.759c-32.5,0-58.834-24.501-58.834-54.759
			c0-30.225,26.334-54.746,58.834-54.746C1271.17,548.275,1297.508,572.797,1297.508,603.021z"/>
	</g>
</g>
</svg>
